<svg width="28" height="24" viewBox="0 0 28 24" fill="none" xmlns="http://www.w3.org/2000/svg">
<path d="M27.5494 3.54136C26.5315 3.99162 25.452 4.28732 24.3467 4.41869C25.5117 3.72194 26.3837 2.62538 26.8001 1.33336C25.7067 1.98402 24.5081 2.44002 23.2587 2.68669C22.4195 1.7888 21.3072 1.19331 20.0947 0.992804C18.8821 0.792299 17.6373 0.998012 16.5538 1.57796C15.4702 2.15791 14.6086 3.0796 14.1029 4.19975C13.5972 5.31989 13.4757 6.57573 13.7574 7.77203C11.5402 7.6609 9.37118 7.08472 7.39112 6.08091C5.41106 5.0771 3.66424 3.66809 2.26407 1.94536C1.76846 2.79662 1.50801 3.76433 1.5094 4.74936C1.5094 6.68269 2.4934 8.39069 3.9894 9.39069C3.10408 9.36282 2.23825 9.12373 1.46407 8.69336V8.76269C1.46434 10.0503 1.9099 11.2982 2.7252 12.2948C3.54051 13.2914 4.67538 13.9753 5.9374 14.2307C5.11556 14.4534 4.25381 14.4862 3.4174 14.3267C3.77323 15.435 4.46675 16.4043 5.40086 17.0988C6.33497 17.7934 7.46291 18.1784 8.62674 18.2C7.47004 19.1085 6.14564 19.78 4.72924 20.1763C3.31285 20.5725 1.83224 20.6857 0.37207 20.5094C2.921 22.1486 5.8882 23.0189 8.91874 23.016C19.1761 23.016 24.7854 14.5187 24.7854 7.14936C24.7854 6.90936 24.7787 6.66669 24.7681 6.42936C25.8599 5.64025 26.8022 4.66272 27.5507 3.54269L27.5494 3.54136Z" fill="white"/>
</svg>
