<svg width="40" height="40" viewBox="0 0 40 40" fill="none" xmlns="http://www.w3.org/2000/svg">
<path d="M-0.00949333 20.0016C-0.00949358 31.036 8.96708 40.0126 20.0015 40.0126C31.0358 40.0126 40.0124 31.036 40.0124 20.0016C40.0124 14.4844 37.7689 9.48229 34.1461 5.85947C30.5233 2.23664 25.5211 -0.00688191 20.0039 -0.00688191C8.96709 -0.00935677 -0.00949029 8.96722 -0.00949333 20.0016ZM19.999 1.74138C30.0676 1.74138 38.2592 9.93297 38.2592 20.0016C38.2592 30.0702 30.0676 38.2618 19.999 38.2618C14.9647 38.2593 10.4009 36.2114 7.09501 32.9056C3.9823 29.7929 1.9864 25.5634 1.76354 20.8782L26.0114 20.8782L20.628 25.8803L21.8215 27.1631L29.5228 20.0016L21.8215 12.8401L20.628 14.1229L26.009 19.1225L1.76354 19.125C2.21918 9.46248 10.225 1.74386 19.999 1.74138Z" fill="white"/>
</svg>
