<svg width="40" height="40" viewBox="0 0 40 40" fill="none" xmlns="http://www.w3.org/2000/svg">
<path d="M40.0127 20.0019C40.0127 8.96752 31.0361 -0.00905445 20.0017 -0.00905319C8.96733 -0.00905217 -0.00925053 8.96753 -0.00925256 20.0019C-0.00925155 25.5191 2.23427 30.5212 5.85709 34.144C9.47992 37.7669 14.482 40.0104 19.9992 40.0104C31.0361 40.0129 40.0127 31.0363 40.0127 20.0019ZM20.0042 38.2621C9.93556 38.2621 1.74396 30.0705 1.74396 20.0019C1.74397 9.93328 9.93556 1.74169 20.0042 1.74169C25.0385 1.74416 29.6023 3.79206 32.9082 7.09792C36.0209 10.2106 38.0168 14.4401 38.2396 19.1253L13.9917 19.1253L19.3752 14.1232L18.1816 12.8405L10.4803 20.0019L18.1816 27.1634L19.3752 25.8806L13.9942 20.881L38.2396 20.8785C37.784 30.541 29.7781 38.2596 20.0042 38.2621Z" fill="white"/>
</svg>
