<svg width="28" height="28" viewBox="0 0 28 28" fill="none" xmlns="http://www.w3.org/2000/svg">
<path d="M13.9998 0.666687C17.6225 0.666687 18.0745 0.68002 19.4958 0.746687C20.9158 0.813354 21.8825 1.03602 22.7332 1.36669C23.6132 1.70535 24.3545 2.16402 25.0958 2.90402C25.7738 3.57055 26.2984 4.37681 26.6332 5.26669C26.9625 6.11602 27.1865 7.08402 27.2532 8.50402C27.3158 9.92535 27.3332 10.3774 27.3332 14C27.3332 17.6227 27.3198 18.0747 27.2532 19.496C27.1865 20.916 26.9625 21.8827 26.6332 22.7334C26.2994 23.6237 25.7747 24.4302 25.0958 25.096C24.4291 25.7738 23.6229 26.2984 22.7332 26.6334C21.8838 26.9627 20.9158 27.1867 19.4958 27.2534C18.0745 27.316 17.6225 27.3334 13.9998 27.3334C10.3772 27.3334 9.92517 27.32 8.50384 27.2534C7.08384 27.1867 6.11717 26.9627 5.2665 26.6334C4.37627 26.2993 3.56987 25.7746 2.90384 25.096C2.22571 24.4296 1.70108 23.6233 1.3665 22.7334C1.03584 21.884 0.81317 20.916 0.746504 19.496C0.683837 18.0747 0.666504 17.6227 0.666504 14C0.666504 10.3774 0.679837 9.92535 0.746504 8.50402C0.81317 7.08269 1.03584 6.11735 1.3665 5.26669C1.70015 4.37626 2.22491 3.56978 2.90384 2.90402C3.57007 2.22566 4.37641 1.70099 5.2665 1.36669C6.11717 1.03602 7.0825 0.813354 8.50384 0.746687C9.92517 0.68402 10.3772 0.666687 13.9998 0.666687ZM13.9998 7.33335C12.2317 7.33335 10.536 8.03573 9.28579 9.28597C8.03555 10.5362 7.33317 12.2319 7.33317 14C7.33317 15.7681 8.03555 17.4638 9.28579 18.7141C10.536 19.9643 12.2317 20.6667 13.9998 20.6667C15.7679 20.6667 17.4636 19.9643 18.7139 18.7141C19.9641 17.4638 20.6665 15.7681 20.6665 14C20.6665 12.2319 19.9641 10.5362 18.7139 9.28597C17.4636 8.03573 15.7679 7.33335 13.9998 7.33335ZM22.6665 7.00002C22.6665 6.55799 22.4909 6.13407 22.1783 5.82151C21.8658 5.50895 21.4419 5.33335 20.9998 5.33335C20.5578 5.33335 20.1339 5.50895 19.8213 5.82151C19.5088 6.13407 19.3332 6.55799 19.3332 7.00002C19.3332 7.44205 19.5088 7.86597 19.8213 8.17853C20.1339 8.49109 20.5578 8.66669 20.9998 8.66669C21.4419 8.66669 21.8658 8.49109 22.1783 8.17853C22.4909 7.86597 22.6665 7.44205 22.6665 7.00002ZM13.9998 10C15.0607 10 16.0781 10.4214 16.8283 11.1716C17.5784 11.9217 17.9998 12.9392 17.9998 14C17.9998 15.0609 17.5784 16.0783 16.8283 16.8284C16.0781 17.5786 15.0607 18 13.9998 18C12.939 18 11.9216 17.5786 11.1714 16.8284C10.4213 16.0783 9.99984 15.0609 9.99984 14C9.99984 12.9392 10.4213 11.9217 11.1714 11.1716C11.9216 10.4214 12.939 10 13.9998 10Z" fill="white"/>
</svg>
