<svg width="30" height="19" viewBox="0 0 30 19" fill="none" xmlns="http://www.w3.org/2000/svg">
<path d="M8.92416 0.133362C9.77616 0.133362 10.5642 0.200028 11.2842 0.397362C11.9375 0.517422 12.5612 0.763803 13.1202 1.1227C13.6455 1.45203 14.0388 1.9147 14.3002 2.50803C14.5628 3.10136 14.6935 3.82803 14.6935 4.6187C14.6935 5.5427 14.4975 6.33336 14.0388 6.92669C13.6455 7.52136 12.9895 8.04803 12.2028 8.44403C13.3175 8.7747 14.1695 9.36803 14.6935 10.1587C15.2188 10.9507 15.5468 11.94 15.5468 13.0614C15.5468 13.9854 15.3495 14.776 15.0215 15.436C14.6935 16.096 14.1695 16.6894 13.5788 17.0854C12.9372 17.5098 12.2279 17.8219 11.4815 18.008C10.6948 18.2067 9.90816 18.3387 9.1215 18.3387H0.333496V0.133362H8.92416ZM8.39883 7.52003C9.12016 7.52003 9.71083 7.3227 10.1695 6.99336C10.6282 6.66403 10.8255 6.06936 10.8255 5.34403C10.8255 4.94803 10.7588 4.55203 10.6282 4.28936C10.4975 4.02536 10.3002 3.8267 10.0388 3.62936C9.77616 3.49736 9.5135 3.36536 9.1855 3.30003C8.8575 3.23336 8.53083 3.23336 8.13616 3.23336H4.3335V7.52136H8.40016L8.39883 7.52003ZM8.59616 15.304C8.9895 15.304 9.38283 15.2374 9.71083 15.172C10.042 15.1091 10.3552 14.9738 10.6282 14.776C10.8953 14.583 11.1189 14.3359 11.2842 14.0507C11.4148 13.7214 11.5468 13.3254 11.5468 12.864C11.5468 11.94 11.2842 11.28 10.7602 10.8187C10.2348 10.4227 9.5135 10.2254 8.6615 10.2254H4.3335V15.3054H8.59616V15.304ZM21.2522 15.2374C21.7762 15.7654 22.5628 16.0294 23.6122 16.0294C24.3335 16.0294 24.9895 15.832 25.5135 15.5027C26.0388 15.1067 26.3668 14.7107 26.4975 14.3147H29.7108C29.1855 15.8974 28.3988 17.0187 27.3508 17.744C26.3002 18.404 25.0548 18.8 23.5468 18.8C22.582 18.8029 21.6253 18.6238 20.7268 18.272C19.9184 17.9688 19.1975 17.4704 18.6282 16.8214C18.0192 16.2141 17.5691 15.4664 17.3175 14.644C16.9895 13.7867 16.8575 12.864 16.8575 11.808C16.8575 10.8187 16.9895 9.89603 17.3175 9.03736C17.6329 8.21081 18.0995 7.45027 18.6935 6.79469C19.2842 6.20136 20.0055 5.6747 20.7922 5.34403C21.6678 4.99211 22.6032 4.81282 23.5468 4.81603C24.6615 4.81603 25.6455 5.0147 26.4975 5.47603C27.3508 5.93736 28.0055 6.46536 28.5308 7.25736C29.0667 8.01807 29.466 8.8663 29.7108 9.76403C29.8415 10.6867 29.9068 11.6107 29.8415 12.6654H20.3335C20.3335 13.7214 20.7268 14.7107 21.2522 15.2387V15.2374ZM25.3828 8.31203C24.9242 7.8507 24.2028 7.58669 23.3495 7.58669C22.7602 7.58669 22.3002 7.7187 21.9068 7.91603C21.5135 8.1147 21.2522 8.3787 20.9895 8.6427C20.7481 8.8977 20.5884 9.21899 20.5308 9.56536C20.4642 9.89603 20.3988 10.1587 20.3988 10.4227H26.3002C26.1695 9.43336 25.8415 8.7747 25.3828 8.31203ZM19.6122 1.3867H26.9562V3.16803H19.6135V1.3867H19.6122Z" fill="white"/>
</svg>
